<svg id="visual" viewBox="0 0 900 600" width="900" height="600" xmlns="http://www.w3.org/2000/svg" xmlns:xlink="http://www.w3.org/1999/xlink" version="1.1"><g stroke-width="1" stroke-linejoin="bevel"><path d="M480 264L511 280L516 237Z" fill="#00101c" stroke="#00101c"></path><path d="M511 280L588 240L516 237Z" fill="#081a28" stroke="#081a28"></path><path d="M444 129L413 258L480 264Z" fill="#00101c" stroke="#00101c"></path><path d="M480 264L460 349L511 280Z" fill="#246688" stroke="#246688"></path><path d="M413 258L460 349L480 264Z" fill="#205a7a" stroke="#205a7a"></path><path d="M511 280L567 337L588 240Z" fill="#277297" stroke="#277297"></path><path d="M540 358L567 337L511 280Z" fill="#15384f" stroke="#15384f"></path><path d="M460 349L540 358L511 280Z" fill="#19435d" stroke="#19435d"></path><path d="M642 387L613 338L567 337Z" fill="#081a28" stroke="#081a28"></path><path d="M567 337L613 338L588 240Z" fill="#112e42" stroke="#112e42"></path><path d="M413 258L381 328L460 349Z" fill="#19435d" stroke="#19435d"></path><path d="M544 118L444 129L516 237Z" fill="#00101c" stroke="#00101c"></path><path d="M516 237L444 129L480 264Z" fill="#081a28" stroke="#081a28"></path><path d="M413 258L284 260L381 328Z" fill="#277297" stroke="#277297"></path><path d="M673 189L613 167L588 240Z" fill="#246688" stroke="#246688"></path><path d="M588 240L613 167L516 237Z" fill="#081a28" stroke="#081a28"></path><path d="M444 129L378 186L413 258Z" fill="#246688" stroke="#246688"></path><path d="M613 167L544 118L516 237Z" fill="#15384f" stroke="#15384f"></path><path d="M381 328L408 377L460 349Z" fill="#00101c" stroke="#00101c"></path><path d="M460 349L508 411L540 358Z" fill="#081a28" stroke="#081a28"></path><path d="M408 377L508 411L460 349Z" fill="#0c2435" stroke="#0c2435"></path><path d="M540 358L642 387L567 337Z" fill="#0c2435" stroke="#0c2435"></path><path d="M444 129L371 172L378 186Z" fill="#277297" stroke="#277297"></path><path d="M378 186L284 260L413 258Z" fill="#205a7a" stroke="#205a7a"></path><path d="M681 298L672 248L588 240Z" fill="#205a7a" stroke="#205a7a"></path><path d="M642 387L681 298L613 338Z" fill="#19435d" stroke="#19435d"></path><path d="M613 338L681 298L588 240Z" fill="#246688" stroke="#246688"></path><path d="M672 248L673 189L588 240Z" fill="#081a28" stroke="#081a28"></path><path d="M610 63L512 59L544 118Z" fill="#15384f" stroke="#15384f"></path><path d="M711 270L673 189L672 248Z" fill="#00101c" stroke="#00101c"></path><path d="M589 485L642 387L540 358Z" fill="#112e42" stroke="#112e42"></path><path d="M610 63L544 118L613 167Z" fill="#297ea6" stroke="#297ea6"></path><path d="M544 118L512 59L444 129Z" fill="#00101c" stroke="#00101c"></path><path d="M444 129L381 81L371 172Z" fill="#0c2435" stroke="#0c2435"></path><path d="M512 59L435 70L444 129Z" fill="#15384f" stroke="#15384f"></path><path d="M786 305L711 270L681 298Z" fill="#15384f" stroke="#15384f"></path><path d="M681 298L711 270L672 248Z" fill="#205a7a" stroke="#205a7a"></path><path d="M307 393L381 427L408 377Z" fill="#246688" stroke="#246688"></path><path d="M408 377L412 457L508 411Z" fill="#1d4e6b" stroke="#1d4e6b"></path><path d="M307 393L408 377L381 328Z" fill="#205a7a" stroke="#205a7a"></path><path d="M435 70L381 81L444 129Z" fill="#205a7a" stroke="#205a7a"></path><path d="M268 189L378 186L371 172Z" fill="#205a7a" stroke="#205a7a"></path><path d="M268 189L284 260L378 186Z" fill="#15384f" stroke="#15384f"></path><path d="M381 427L412 457L408 377Z" fill="#1d4e6b" stroke="#1d4e6b"></path><path d="M508 411L589 485L540 358Z" fill="#19435d" stroke="#19435d"></path><path d="M642 72L610 63L613 167Z" fill="#00101c" stroke="#00101c"></path><path d="M673 189L642 72L613 167Z" fill="#081a28" stroke="#081a28"></path><path d="M756 114L642 72L673 189Z" fill="#277297" stroke="#277297"></path><path d="M262 321L307 393L381 328Z" fill="#246688" stroke="#246688"></path><path d="M381 427L415 493L412 457Z" fill="#00101c" stroke="#00101c"></path><path d="M412 457L508 499L508 411Z" fill="#112e42" stroke="#112e42"></path><path d="M508 499L589 485L508 411Z" fill="#0c2435" stroke="#0c2435"></path><path d="M642 387L700 414L681 298Z" fill="#112e42" stroke="#112e42"></path><path d="M259 160L268 189L371 172Z" fill="#0c2435" stroke="#0c2435"></path><path d="M284 260L262 321L381 328Z" fill="#277297" stroke="#277297"></path><path d="M187 284L262 321L284 260Z" fill="#277297" stroke="#277297"></path><path d="M412 457L415 493L508 499Z" fill="#0c2435" stroke="#0c2435"></path><path d="M358 536L415 493L381 427Z" fill="#277297" stroke="#277297"></path><path d="M622 488L700 414L642 387Z" fill="#112e42" stroke="#112e42"></path><path d="M635 554L622 488L589 485Z" fill="#081a28" stroke="#081a28"></path><path d="M589 485L622 488L642 387Z" fill="#297ea6" stroke="#297ea6"></path><path d="M566 0L512 59L610 63Z" fill="#1d4e6b" stroke="#1d4e6b"></path><path d="M566 0L542 0L512 59Z" fill="#19435d" stroke="#19435d"></path><path d="M512 59L456 0L435 70Z" fill="#00101c" stroke="#00101c"></path><path d="M435 70L392 0L381 81Z" fill="#297ea6" stroke="#297ea6"></path><path d="M542 0L456 0L512 59Z" fill="#15384f" stroke="#15384f"></path><path d="M279 114L259 160L371 172Z" fill="#297ea6" stroke="#297ea6"></path><path d="M279 114L371 172L381 81Z" fill="#246688" stroke="#246688"></path><path d="M268 189L210 225L284 260Z" fill="#297ea6" stroke="#297ea6"></path><path d="M776 184L757 187L799 205Z" fill="#297ea6" stroke="#297ea6"></path><path d="M711 270L757 187L673 189Z" fill="#19435d" stroke="#19435d"></path><path d="M668 0L566 0L610 63Z" fill="#246688" stroke="#246688"></path><path d="M263 0L279 114L381 81Z" fill="#277297" stroke="#277297"></path><path d="M729 498L724 424L700 414Z" fill="#19435d" stroke="#19435d"></path><path d="M778 366L786 305L681 298Z" fill="#00101c" stroke="#00101c"></path><path d="M456 0L392 0L435 70Z" fill="#205a7a" stroke="#205a7a"></path><path d="M799 205L757 187L711 270Z" fill="#081a28" stroke="#081a28"></path><path d="M757 187L756 114L673 189Z" fill="#205a7a" stroke="#205a7a"></path><path d="M642 72L668 0L610 63Z" fill="#081a28" stroke="#081a28"></path><path d="M196 325L246 384L262 321Z" fill="#19435d" stroke="#19435d"></path><path d="M262 321L246 384L307 393Z" fill="#297ea6" stroke="#297ea6"></path><path d="M307 393L269 435L381 427Z" fill="#081a28" stroke="#081a28"></path><path d="M778 366L681 298L700 414Z" fill="#0c2435" stroke="#0c2435"></path><path d="M776 184L756 114L757 187Z" fill="#0c2435" stroke="#0c2435"></path><path d="M246 384L269 435L307 393Z" fill="#081a28" stroke="#081a28"></path><path d="M144 194L210 225L164 119Z" fill="#277297" stroke="#277297"></path><path d="M259 160L210 225L268 189Z" fill="#205a7a" stroke="#205a7a"></path><path d="M724 424L778 366L700 414Z" fill="#205a7a" stroke="#205a7a"></path><path d="M786 305L799 205L711 270Z" fill="#297ea6" stroke="#297ea6"></path><path d="M776 184L824 182L756 114Z" fill="#246688" stroke="#246688"></path><path d="M724 424L786 368L778 366Z" fill="#277297" stroke="#277297"></path><path d="M778 366L786 368L786 305Z" fill="#277297" stroke="#277297"></path><path d="M900 245L824 182L799 205Z" fill="#246688" stroke="#246688"></path><path d="M727 0L668 0L642 72Z" fill="#246688" stroke="#246688"></path><path d="M269 435L358 536L381 427Z" fill="#0c2435" stroke="#0c2435"></path><path d="M452 600L531 600L508 499Z" fill="#246688" stroke="#246688"></path><path d="M585 600L635 554L589 485Z" fill="#205a7a" stroke="#205a7a"></path><path d="M187 284L196 325L262 321Z" fill="#081a28" stroke="#081a28"></path><path d="M246 384L201 489L269 435Z" fill="#297ea6" stroke="#297ea6"></path><path d="M210 225L187 284L284 260Z" fill="#246688" stroke="#246688"></path><path d="M531 600L589 485L508 499Z" fill="#0c2435" stroke="#0c2435"></path><path d="M622 488L729 498L700 414Z" fill="#0c2435" stroke="#0c2435"></path><path d="M724 424L842 479L786 368Z" fill="#19435d" stroke="#19435d"></path><path d="M799 205L824 182L776 184Z" fill="#246688" stroke="#246688"></path><path d="M756 114L727 0L642 72Z" fill="#19435d" stroke="#19435d"></path><path d="M900 245L799 205L786 305Z" fill="#112e42" stroke="#112e42"></path><path d="M635 554L729 498L622 488Z" fill="#205a7a" stroke="#205a7a"></path><path d="M263 0L218 88L279 114Z" fill="#277297" stroke="#277297"></path><path d="M279 114L218 88L259 160Z" fill="#112e42" stroke="#112e42"></path><path d="M210 225L144 194L187 284Z" fill="#277297" stroke="#277297"></path><path d="M835 71L727 0L756 114Z" fill="#246688" stroke="#246688"></path><path d="M452 600L508 499L415 493Z" fill="#297ea6" stroke="#297ea6"></path><path d="M385 600L452 600L415 493Z" fill="#081a28" stroke="#081a28"></path><path d="M392 0L263 0L381 81Z" fill="#1d4e6b" stroke="#1d4e6b"></path><path d="M531 600L585 600L589 485Z" fill="#00101c" stroke="#00101c"></path><path d="M635 554L706 600L729 498Z" fill="#19435d" stroke="#19435d"></path><path d="M297 600L385 600L358 536Z" fill="#297ea6" stroke="#297ea6"></path><path d="M358 536L385 600L415 493Z" fill="#1d4e6b" stroke="#1d4e6b"></path><path d="M164 119L259 160L218 88Z" fill="#297ea6" stroke="#297ea6"></path><path d="M164 119L210 225L259 160Z" fill="#19435d" stroke="#19435d"></path><path d="M187 284L144 346L196 325Z" fill="#00101c" stroke="#00101c"></path><path d="M185 41L164 119L218 88Z" fill="#1d4e6b" stroke="#1d4e6b"></path><path d="M68 272L144 346L187 284Z" fill="#15384f" stroke="#15384f"></path><path d="M196 325L144 346L246 384Z" fill="#15384f" stroke="#15384f"></path><path d="M269 435L285 558L358 536Z" fill="#297ea6" stroke="#297ea6"></path><path d="M201 489L285 558L269 435Z" fill="#297ea6" stroke="#297ea6"></path><path d="M263 0L223 0L218 88Z" fill="#112e42" stroke="#112e42"></path><path d="M824 182L835 71L756 114Z" fill="#00101c" stroke="#00101c"></path><path d="M146 467L201 489L246 384Z" fill="#081a28" stroke="#081a28"></path><path d="M223 0L185 41L218 88Z" fill="#00101c" stroke="#00101c"></path><path d="M900 330L786 305L900 337Z" fill="#1d4e6b" stroke="#1d4e6b"></path><path d="M900 330L900 245L786 305Z" fill="#112e42" stroke="#112e42"></path><path d="M824 182L900 123L835 71Z" fill="#15384f" stroke="#15384f"></path><path d="M585 600L706 600L635 554Z" fill="#297ea6" stroke="#297ea6"></path><path d="M900 337L786 305L786 368Z" fill="#15384f" stroke="#15384f"></path><path d="M210 600L297 600L285 558Z" fill="#277297" stroke="#277297"></path><path d="M285 558L297 600L358 536Z" fill="#19435d" stroke="#19435d"></path><path d="M86 161L107 190L144 194Z" fill="#112e42" stroke="#112e42"></path><path d="M144 194L68 272L187 284Z" fill="#112e42" stroke="#112e42"></path><path d="M86 161L144 194L164 119Z" fill="#277297" stroke="#277297"></path><path d="M900 337L786 368L842 479Z" fill="#00101c" stroke="#00101c"></path><path d="M842 479L724 424L729 498Z" fill="#112e42" stroke="#112e42"></path><path d="M859 532L842 479L729 498Z" fill="#0c2435" stroke="#0c2435"></path><path d="M68 272L112 368L144 346Z" fill="#297ea6" stroke="#297ea6"></path><path d="M144 346L146 467L246 384Z" fill="#297ea6" stroke="#297ea6"></path><path d="M900 50L822 0L835 71Z" fill="#15384f" stroke="#15384f"></path><path d="M835 71L822 0L727 0Z" fill="#081a28" stroke="#081a28"></path><path d="M113 445L146 467L144 346Z" fill="#00101c" stroke="#00101c"></path><path d="M201 489L195 536L285 558Z" fill="#15384f" stroke="#15384f"></path><path d="M165 521L195 536L201 489Z" fill="#1d4e6b" stroke="#1d4e6b"></path><path d="M900 245L900 123L824 182Z" fill="#246688" stroke="#246688"></path><path d="M55 98L86 161L164 119Z" fill="#1d4e6b" stroke="#1d4e6b"></path><path d="M107 190L68 272L144 194Z" fill="#00101c" stroke="#00101c"></path><path d="M146 467L165 521L201 489Z" fill="#15384f" stroke="#15384f"></path><path d="M195 536L210 600L285 558Z" fill="#297ea6" stroke="#297ea6"></path><path d="M0 401L113 445L112 368Z" fill="#0c2435" stroke="#0c2435"></path><path d="M112 368L113 445L144 346Z" fill="#297ea6" stroke="#297ea6"></path><path d="M146 467L69 554L165 521Z" fill="#00101c" stroke="#00101c"></path><path d="M0 226L68 272L107 190Z" fill="#0c2435" stroke="#0c2435"></path><path d="M706 600L778 600L729 498Z" fill="#297ea6" stroke="#297ea6"></path><path d="M778 600L786 600L729 498Z" fill="#00101c" stroke="#00101c"></path><path d="M900 123L900 50L835 71Z" fill="#246688" stroke="#246688"></path><path d="M786 600L859 532L729 498Z" fill="#19435d" stroke="#19435d"></path><path d="M842 479L900 482L900 337Z" fill="#246688" stroke="#246688"></path><path d="M122 600L195 536L165 521Z" fill="#0c2435" stroke="#0c2435"></path><path d="M122 600L210 600L195 536Z" fill="#15384f" stroke="#15384f"></path><path d="M900 515L900 482L842 479Z" fill="#00101c" stroke="#00101c"></path><path d="M223 0L113 0L185 41Z" fill="#277297" stroke="#277297"></path><path d="M185 41L113 0L164 119Z" fill="#19435d" stroke="#19435d"></path><path d="M900 50L900 0L822 0Z" fill="#00101c" stroke="#00101c"></path><path d="M900 600L900 515L859 532Z" fill="#0c2435" stroke="#0c2435"></path><path d="M859 532L900 515L842 479Z" fill="#246688" stroke="#246688"></path><path d="M113 0L55 98L164 119Z" fill="#205a7a" stroke="#205a7a"></path><path d="M0 226L0 274L68 272Z" fill="#19435d" stroke="#19435d"></path><path d="M113 0L77 0L55 98Z" fill="#112e42" stroke="#112e42"></path><path d="M68 272L0 401L112 368Z" fill="#205a7a" stroke="#205a7a"></path><path d="M112 600L122 600L69 554Z" fill="#1d4e6b" stroke="#1d4e6b"></path><path d="M0 226L107 190L86 161Z" fill="#00101c" stroke="#00101c"></path><path d="M0 226L86 161L0 110Z" fill="#246688" stroke="#246688"></path><path d="M0 110L86 161L55 98Z" fill="#1d4e6b" stroke="#1d4e6b"></path><path d="M122 600L165 521L69 554Z" fill="#0c2435" stroke="#0c2435"></path><path d="M69 554L146 467L113 445Z" fill="#297ea6" stroke="#297ea6"></path><path d="M0 274L0 401L68 272Z" fill="#277297" stroke="#277297"></path><path d="M0 71L0 110L55 98Z" fill="#205a7a" stroke="#205a7a"></path><path d="M786 600L900 600L859 532Z" fill="#205a7a" stroke="#205a7a"></path><path d="M0 485L69 554L113 445Z" fill="#00101c" stroke="#00101c"></path><path d="M77 0L0 71L55 98Z" fill="#205a7a" stroke="#205a7a"></path><path d="M0 401L0 485L113 445Z" fill="#112e42" stroke="#112e42"></path><path d="M69 554L0 600L112 600Z" fill="#00101c" stroke="#00101c"></path><path d="M0 485L0 509L69 554Z" fill="#297ea6" stroke="#297ea6"></path><path d="M77 0L0 0L0 71Z" fill="#297ea6" stroke="#297ea6"></path><path d="M0 509L0 600L69 554Z" fill="#081a28" stroke="#081a28"></path></g></svg>