<svg id="visual" viewBox="0 0 2000 2000" width="2000" height="2000" xmlns="http://www.w3.org/2000/svg" xmlns:xlink="http://www.w3.org/1999/xlink" version="1.1"><g stroke-width="1" stroke-linejoin="bevel"><path d="M1105.1 1098.1L1127.1 885.9L911.9 856.9Z" fill="#277297" stroke="#277297"></path><path d="M911.9 856.9L869.9 1082.1L1105.1 1098.1Z" fill="#081a28" stroke="#081a28"></path><path d="M1093.1 665.7L923.9 679.7L911.9 856.9Z" fill="#1d4e6b" stroke="#1d4e6b"></path><path d="M667.7 915.9L699.7 1106.1L869.9 1082.1Z" fill="#297ea6" stroke="#297ea6"></path><path d="M1127.1 885.9L1093.1 665.7L911.9 856.9Z" fill="#0c2435" stroke="#0c2435"></path><path d="M667.7 915.9L869.9 1082.1L911.9 856.9Z" fill="#15384f" stroke="#15384f"></path><path d="M869.9 1082.1L871.9 1300.3L1105.1 1098.1Z" fill="#205a7a" stroke="#205a7a"></path><path d="M635.7 681.7L667.7 915.9L911.9 856.9Z" fill="#246688" stroke="#246688"></path><path d="M699.7 1106.1L871.9 1300.3L869.9 1082.1Z" fill="#205a7a" stroke="#205a7a"></path><path d="M871.9 1300.3L1110.1 1317.3L1105.1 1098.1Z" fill="#1d4e6b" stroke="#1d4e6b"></path><path d="M1342.3 1138.1L1339.3 850.9L1127.1 885.9Z" fill="#19435d" stroke="#19435d"></path><path d="M1342.3 1138.1L1127.1 885.9L1105.1 1098.1Z" fill="#19435d" stroke="#19435d"></path><path d="M1127.1 885.9L1310.3 645.7L1093.1 665.7Z" fill="#1d4e6b" stroke="#1d4e6b"></path><path d="M1110.1 1317.3L1342.3 1138.1L1105.1 1098.1Z" fill="#00101c" stroke="#00101c"></path><path d="M1339.3 850.9L1310.3 645.7L1127.1 885.9Z" fill="#081a28" stroke="#081a28"></path><path d="M864.9 483.4L635.7 681.7L923.9 679.7Z" fill="#1d4e6b" stroke="#1d4e6b"></path><path d="M699.7 1106.1L678.7 1314.3L871.9 1300.3Z" fill="#297ea6" stroke="#297ea6"></path><path d="M871.9 1300.3L878.9 1545.6L1110.1 1317.3Z" fill="#205a7a" stroke="#205a7a"></path><path d="M460.4 1309.3L678.7 1314.3L699.7 1106.1Z" fill="#081a28" stroke="#081a28"></path><path d="M864.9 483.4L923.9 679.7L1093.1 665.7Z" fill="#205a7a" stroke="#205a7a"></path><path d="M923.9 679.7L635.7 681.7L911.9 856.9Z" fill="#112e42" stroke="#112e42"></path><path d="M667.7 915.9L449.4 919.9L699.7 1106.1Z" fill="#205a7a" stroke="#205a7a"></path><path d="M1119.1 1593.6L1332.3 1362.3L1110.1 1317.3Z" fill="#205a7a" stroke="#205a7a"></path><path d="M1110.1 1317.3L1332.3 1362.3L1342.3 1138.1Z" fill="#277297" stroke="#277297"></path><path d="M1130.1 457.4L864.9 483.4L1093.1 665.7Z" fill="#205a7a" stroke="#205a7a"></path><path d="M1342.3 1138.1L1522.6 923.9L1339.3 850.9Z" fill="#277297" stroke="#277297"></path><path d="M1339.3 850.9L1539.6 655.7L1310.3 645.7Z" fill="#1d4e6b" stroke="#1d4e6b"></path><path d="M1572.6 1124.1L1522.6 923.9L1342.3 1138.1Z" fill="#19435d" stroke="#19435d"></path><path d="M1310.3 645.7L1130.1 457.4L1093.1 665.7Z" fill="#1d4e6b" stroke="#1d4e6b"></path><path d="M635.7 681.7L449.4 919.9L667.7 915.9Z" fill="#297ea6" stroke="#297ea6"></path><path d="M678.7 1314.3L878.9 1545.6L871.9 1300.3Z" fill="#297ea6" stroke="#297ea6"></path><path d="M1530.6 1293.3L1572.6 1124.1L1342.3 1138.1Z" fill="#0c2435" stroke="#0c2435"></path><path d="M449.4 919.9L419.4 1145.1L699.7 1106.1Z" fill="#00101c" stroke="#00101c"></path><path d="M678.7 1314.3L673.7 1563.6L878.9 1545.6Z" fill="#277297" stroke="#277297"></path><path d="M1332.3 1362.3L1530.6 1293.3L1342.3 1138.1Z" fill="#297ea6" stroke="#297ea6"></path><path d="M1515.6 1528.6L1530.6 1293.3L1332.3 1362.3Z" fill="#081a28" stroke="#081a28"></path><path d="M1539.6 655.7L1294.3 438.4L1310.3 645.7Z" fill="#246688" stroke="#246688"></path><path d="M1310.3 645.7L1294.3 438.4L1130.1 457.4Z" fill="#277297" stroke="#277297"></path><path d="M878.9 225.2L701.7 445.4L864.9 483.4Z" fill="#15384f" stroke="#15384f"></path><path d="M864.9 483.4L701.7 445.4L635.7 681.7Z" fill="#15384f" stroke="#15384f"></path><path d="M635.7 681.7L473.4 647.7L449.4 919.9Z" fill="#297ea6" stroke="#297ea6"></path><path d="M878.9 225.2L864.9 483.4L1130.1 457.4Z" fill="#19435d" stroke="#19435d"></path><path d="M878.9 1545.6L1119.1 1593.6L1110.1 1317.3Z" fill="#205a7a" stroke="#205a7a"></path><path d="M1749.8 910.9L1539.6 655.7L1522.6 923.9Z" fill="#0c2435" stroke="#0c2435"></path><path d="M1522.6 923.9L1539.6 655.7L1339.3 850.9Z" fill="#00101c" stroke="#00101c"></path><path d="M477.4 454.4L473.4 647.7L635.7 681.7Z" fill="#112e42" stroke="#112e42"></path><path d="M449.4 919.9L220.2 1119.1L419.4 1145.1Z" fill="#0c2435" stroke="#0c2435"></path><path d="M419.4 1145.1L460.4 1309.3L699.7 1106.1Z" fill="#00101c" stroke="#00101c"></path><path d="M1119.1 1593.6L1354.3 1531.6L1332.3 1362.3Z" fill="#246688" stroke="#246688"></path><path d="M447.4 1516.6L673.7 1563.6L678.7 1314.3Z" fill="#081a28" stroke="#081a28"></path><path d="M878.9 1545.6L1078.1 1773.8L1119.1 1593.6Z" fill="#297ea6" stroke="#297ea6"></path><path d="M701.7 445.4L477.4 454.4L635.7 681.7Z" fill="#205a7a" stroke="#205a7a"></path><path d="M473.4 647.7L227.2 881.9L449.4 919.9Z" fill="#297ea6" stroke="#297ea6"></path><path d="M1572.6 1124.1L1749.8 910.9L1522.6 923.9Z" fill="#19435d" stroke="#19435d"></path><path d="M1770.8 1087.1L1749.8 910.9L1572.6 1124.1Z" fill="#246688" stroke="#246688"></path><path d="M1362.3 1747.8L1515.6 1528.6L1354.3 1531.6Z" fill="#277297" stroke="#277297"></path><path d="M1354.3 1531.6L1515.6 1528.6L1332.3 1362.3Z" fill="#19435d" stroke="#19435d"></path><path d="M1796.8 1372.3L1770.8 1087.1L1572.6 1124.1Z" fill="#081a28" stroke="#081a28"></path><path d="M1095.1 188.2L878.9 225.2L1130.1 457.4Z" fill="#081a28" stroke="#081a28"></path><path d="M701.7 445.4L657.7 186.2L477.4 454.4Z" fill="#0c2435" stroke="#0c2435"></path><path d="M460.4 1309.3L447.4 1516.6L678.7 1314.3Z" fill="#081a28" stroke="#081a28"></path><path d="M237.2 1337.3L447.4 1516.6L460.4 1309.3Z" fill="#277297" stroke="#277297"></path><path d="M1796.8 1372.3L1572.6 1124.1L1530.6 1293.3Z" fill="#1d4e6b" stroke="#1d4e6b"></path><path d="M251.2 636.7L227.2 881.9L473.4 647.7Z" fill="#205a7a" stroke="#205a7a"></path><path d="M419.4 1145.1L237.2 1337.3L460.4 1309.3Z" fill="#246688" stroke="#246688"></path><path d="M1533.6 245.2L1297.3 253.2L1294.3 438.4Z" fill="#277297" stroke="#277297"></path><path d="M1294.3 438.4L1297.3 253.2L1130.1 457.4Z" fill="#15384f" stroke="#15384f"></path><path d="M1591.6 427.4L1294.3 438.4L1539.6 655.7Z" fill="#0c2435" stroke="#0c2435"></path><path d="M856.9 1773.8L1078.1 1773.8L878.9 1545.6Z" fill="#19435d" stroke="#19435d"></path><path d="M1119.1 1593.6L1362.3 1747.8L1354.3 1531.6Z" fill="#15384f" stroke="#15384f"></path><path d="M856.9 1773.8L878.9 1545.6L673.7 1563.6Z" fill="#297ea6" stroke="#297ea6"></path><path d="M227.2 881.9L220.2 1119.1L449.4 919.9Z" fill="#19435d" stroke="#19435d"></path><path d="M1297.3 253.2L1095.1 188.2L1130.1 457.4Z" fill="#1d4e6b" stroke="#1d4e6b"></path><path d="M1783.8 642.7L1591.6 427.4L1539.6 655.7Z" fill="#081a28" stroke="#081a28"></path><path d="M644.7 1778.8L856.9 1773.8L673.7 1563.6Z" fill="#0c2435" stroke="#0c2435"></path><path d="M477.4 454.4L251.2 636.7L473.4 647.7Z" fill="#112e42" stroke="#112e42"></path><path d="M220.2 1119.1L237.2 1337.3L419.4 1145.1Z" fill="#205a7a" stroke="#205a7a"></path><path d="M1078.1 1773.8L1362.3 1747.8L1119.1 1593.6Z" fill="#277297" stroke="#277297"></path><path d="M2000 685.7L1783.8 642.7L1749.8 910.9Z" fill="#00101c" stroke="#00101c"></path><path d="M1749.8 910.9L1783.8 642.7L1539.6 655.7Z" fill="#15384f" stroke="#15384f"></path><path d="M878.9 225.2L657.7 186.2L701.7 445.4Z" fill="#112e42" stroke="#112e42"></path><path d="M477.4 454.4L220.2 463.4L251.2 636.7Z" fill="#081a28" stroke="#081a28"></path><path d="M886.9 0L657.7 186.2L878.9 225.2Z" fill="#00101c" stroke="#00101c"></path><path d="M478.4 1763.8L673.7 1563.6L447.4 1516.6Z" fill="#277297" stroke="#277297"></path><path d="M478.4 1763.8L644.7 1778.8L673.7 1563.6Z" fill="#0c2435" stroke="#0c2435"></path><path d="M909.9 2000L1086.1 2000L1078.1 1773.8Z" fill="#205a7a" stroke="#205a7a"></path><path d="M1515.6 1528.6L1796.8 1372.3L1530.6 1293.3Z" fill="#081a28" stroke="#081a28"></path><path d="M1770.8 1087.1L2000 910.9L1749.8 910.9Z" fill="#0c2435" stroke="#0c2435"></path><path d="M1763.8 1577.6L1796.8 1372.3L1515.6 1528.6Z" fill="#081a28" stroke="#081a28"></path><path d="M1781.8 255.2L1533.6 245.2L1591.6 427.4Z" fill="#1d4e6b" stroke="#1d4e6b"></path><path d="M1591.6 427.4L1533.6 245.2L1294.3 438.4Z" fill="#0c2435" stroke="#0c2435"></path><path d="M1332.3 0L1103.1 0L1095.1 188.2Z" fill="#081a28" stroke="#081a28"></path><path d="M251.2 218.2L220.2 463.4L477.4 454.4Z" fill="#297ea6" stroke="#297ea6"></path><path d="M0 651.7L0 852.9L227.2 881.9Z" fill="#00101c" stroke="#00101c"></path><path d="M227.2 881.9L0 1132.1L220.2 1119.1Z" fill="#112e42" stroke="#112e42"></path><path d="M216.2 1584.6L478.4 1763.8L447.4 1516.6Z" fill="#112e42" stroke="#112e42"></path><path d="M657.7 186.2L446.4 216.2L477.4 454.4Z" fill="#1d4e6b" stroke="#1d4e6b"></path><path d="M1552.6 1785.8L1763.8 1577.6L1515.6 1528.6Z" fill="#081a28" stroke="#081a28"></path><path d="M1307.3 2000L1552.6 1785.8L1362.3 1747.8Z" fill="#112e42" stroke="#112e42"></path><path d="M1362.3 1747.8L1552.6 1785.8L1515.6 1528.6Z" fill="#0c2435" stroke="#0c2435"></path><path d="M1307.3 2000L1362.3 1747.8L1078.1 1773.8Z" fill="#15384f" stroke="#15384f"></path><path d="M1332.3 0L1095.1 188.2L1297.3 253.2Z" fill="#081a28" stroke="#081a28"></path><path d="M1095.1 188.2L886.9 0L878.9 225.2Z" fill="#246688" stroke="#246688"></path><path d="M657.7 186.2L477.4 0L446.4 216.2Z" fill="#00101c" stroke="#00101c"></path><path d="M1103.1 0L886.9 0L1095.1 188.2Z" fill="#19435d" stroke="#19435d"></path><path d="M1783.8 642.7L1814.8 409.4L1591.6 427.4Z" fill="#277297" stroke="#277297"></path><path d="M2000 466.4L1814.8 409.4L1783.8 642.7Z" fill="#246688" stroke="#246688"></path><path d="M0 1335.3L237.2 1337.3L220.2 1119.1Z" fill="#297ea6" stroke="#297ea6"></path><path d="M0 1565.6L216.2 1584.6L237.2 1337.3Z" fill="#081a28" stroke="#081a28"></path><path d="M237.2 1337.3L216.2 1584.6L447.4 1516.6Z" fill="#0c2435" stroke="#0c2435"></path><path d="M2000 1093.1L1770.8 1087.1L1796.8 1372.3Z" fill="#00101c" stroke="#00101c"></path><path d="M2000 1093.1L2000 910.9L1770.8 1087.1Z" fill="#0c2435" stroke="#0c2435"></path><path d="M2000 1365.3L2000 1093.1L1796.8 1372.3Z" fill="#246688" stroke="#246688"></path><path d="M0 651.7L227.2 881.9L251.2 636.7Z" fill="#081a28" stroke="#081a28"></path><path d="M0 852.9L0 1132.1L227.2 881.9Z" fill="#1d4e6b" stroke="#1d4e6b"></path><path d="M909.9 2000L856.9 1773.8L630.7 2000Z" fill="#1d4e6b" stroke="#1d4e6b"></path><path d="M909.9 2000L1078.1 1773.8L856.9 1773.8Z" fill="#081a28" stroke="#081a28"></path><path d="M630.7 2000L856.9 1773.8L644.7 1778.8Z" fill="#081a28" stroke="#081a28"></path><path d="M1520.6 0L1332.3 0L1533.6 245.2Z" fill="#205a7a" stroke="#205a7a"></path><path d="M1533.6 245.2L1332.3 0L1297.3 253.2Z" fill="#1d4e6b" stroke="#1d4e6b"></path><path d="M2000 910.9L2000 685.7L1749.8 910.9Z" fill="#15384f" stroke="#15384f"></path><path d="M886.9 0L647.7 0L657.7 186.2Z" fill="#277297" stroke="#277297"></path><path d="M220.2 463.4L0 651.7L251.2 636.7Z" fill="#0c2435" stroke="#0c2435"></path><path d="M0 409.4L0 651.7L220.2 463.4Z" fill="#277297" stroke="#277297"></path><path d="M251.2 218.2L477.4 454.4L446.4 216.2Z" fill="#246688" stroke="#246688"></path><path d="M2000 198.2L1781.8 255.2L1814.8 409.4Z" fill="#1d4e6b" stroke="#1d4e6b"></path><path d="M1814.8 409.4L1781.8 255.2L1591.6 427.4Z" fill="#081a28" stroke="#081a28"></path><path d="M1086.1 2000L1307.3 2000L1078.1 1773.8Z" fill="#0c2435" stroke="#0c2435"></path><path d="M0 1132.1L0 1335.3L220.2 1119.1Z" fill="#112e42" stroke="#112e42"></path><path d="M2000 1585.6L2000 1365.3L1796.8 1372.3Z" fill="#081a28" stroke="#081a28"></path><path d="M2000 1585.6L1796.8 1372.3L1763.8 1577.6Z" fill="#19435d" stroke="#19435d"></path><path d="M254.2 0L251.2 218.2L446.4 216.2Z" fill="#1d4e6b" stroke="#1d4e6b"></path><path d="M443.4 2000L630.7 2000L478.4 1763.8Z" fill="#112e42" stroke="#112e42"></path><path d="M478.4 1763.8L630.7 2000L644.7 1778.8Z" fill="#297ea6" stroke="#297ea6"></path><path d="M0 1805.8L252.2 1774.8L216.2 1584.6Z" fill="#246688" stroke="#246688"></path><path d="M216.2 1584.6L252.2 1774.8L478.4 1763.8Z" fill="#1d4e6b" stroke="#1d4e6b"></path><path d="M1782.8 0L1520.6 0L1533.6 245.2Z" fill="#15384f" stroke="#15384f"></path><path d="M647.7 0L477.4 0L657.7 186.2Z" fill="#1d4e6b" stroke="#1d4e6b"></path><path d="M2000 685.7L2000 466.4L1783.8 642.7Z" fill="#205a7a" stroke="#205a7a"></path><path d="M1781.8 255.2L1782.8 0L1533.6 245.2Z" fill="#081a28" stroke="#081a28"></path><path d="M1772.8 2000L1802.8 1797.8L1552.6 1785.8Z" fill="#205a7a" stroke="#205a7a"></path><path d="M1552.6 1785.8L1802.8 1797.8L1763.8 1577.6Z" fill="#081a28" stroke="#081a28"></path><path d="M251.2 218.2L0 409.4L220.2 463.4Z" fill="#112e42" stroke="#112e42"></path><path d="M0 222.2L0 409.4L251.2 218.2Z" fill="#00101c" stroke="#00101c"></path><path d="M1307.3 2000L1556.6 2000L1552.6 1785.8Z" fill="#112e42" stroke="#112e42"></path><path d="M0 1335.3L0 1565.6L237.2 1337.3Z" fill="#297ea6" stroke="#297ea6"></path><path d="M186.2 2000L443.4 2000L252.2 1774.8Z" fill="#112e42" stroke="#112e42"></path><path d="M252.2 1774.8L443.4 2000L478.4 1763.8Z" fill="#277297" stroke="#277297"></path><path d="M1802.8 1797.8L2000 1585.6L1763.8 1577.6Z" fill="#112e42" stroke="#112e42"></path><path d="M477.4 0L254.2 0L446.4 216.2Z" fill="#00101c" stroke="#00101c"></path><path d="M2000 198.2L1782.8 0L1781.8 255.2Z" fill="#297ea6" stroke="#297ea6"></path><path d="M0 0L0 222.2L251.2 218.2Z" fill="#1d4e6b" stroke="#1d4e6b"></path><path d="M2000 466.4L2000 198.2L1814.8 409.4Z" fill="#19435d" stroke="#19435d"></path><path d="M1556.6 2000L1772.8 2000L1552.6 1785.8Z" fill="#277297" stroke="#277297"></path><path d="M1802.8 1797.8L2000 1808.8L2000 1585.6Z" fill="#246688" stroke="#246688"></path><path d="M2000 2000L2000 1808.8L1802.8 1797.8Z" fill="#277297" stroke="#277297"></path><path d="M0 1565.6L0 1805.8L216.2 1584.6Z" fill="#1d4e6b" stroke="#1d4e6b"></path><path d="M0 1805.8L186.2 2000L252.2 1774.8Z" fill="#297ea6" stroke="#297ea6"></path><path d="M2000 198.2L2000 0L1782.8 0Z" fill="#205a7a" stroke="#205a7a"></path><path d="M254.2 0L0 0L251.2 218.2Z" fill="#19435d" stroke="#19435d"></path><path d="M1772.8 2000L2000 2000L1802.8 1797.8Z" fill="#15384f" stroke="#15384f"></path><path d="M0 1805.8L0 2000L186.2 2000Z" fill="#112e42" stroke="#112e42"></path></g></svg>