<svg id="visual" viewBox="0 0 2000 2000" width="2000" height="2000" xmlns="http://www.w3.org/2000/svg" xmlns:xlink="http://www.w3.org/1999/xlink" version="1.1"><g stroke-width="1" stroke-linejoin="bevel"><path d="M1186 838L1215 1203L1566 1166Z" fill="#00101c" stroke="#00101c"></path><path d="M1566 1166L1661 832L1186 838Z" fill="#277297" stroke="#277297"></path><path d="M1582 410L1225 400L1186 838Z" fill="#246688" stroke="#246688"></path><path d="M1661 832L1582 410L1186 838Z" fill="#00101c" stroke="#00101c"></path><path d="M1215 1203L1254 1644L1566 1166Z" fill="#277297" stroke="#277297"></path><path d="M1186 838L751 1224L1215 1203Z" fill="#246688" stroke="#246688"></path><path d="M1215 1203L794 1606L1254 1644Z" fill="#277297" stroke="#277297"></path><path d="M750 755L751 1224L1186 838Z" fill="#246688" stroke="#246688"></path><path d="M2000 1247L2000 786L1661 832Z" fill="#00101c" stroke="#00101c"></path><path d="M1661 832L2000 786L1582 410Z" fill="#1d4e6b" stroke="#1d4e6b"></path><path d="M2000 1247L1661 832L1566 1166Z" fill="#112e42" stroke="#112e42"></path><path d="M832 404L750 755L1186 838Z" fill="#297ea6" stroke="#297ea6"></path><path d="M1597 1660L2000 1247L1566 1166Z" fill="#00101c" stroke="#00101c"></path><path d="M1254 1644L1597 1660L1566 1166Z" fill="#081a28" stroke="#081a28"></path><path d="M1225 400L832 404L1186 838Z" fill="#297ea6" stroke="#297ea6"></path><path d="M751 1224L794 1606L1215 1203Z" fill="#00101c" stroke="#00101c"></path><path d="M1597 1660L2000 1599L2000 1247Z" fill="#277297" stroke="#277297"></path><path d="M2000 786L2000 386L1582 410Z" fill="#19435d" stroke="#19435d"></path><path d="M1611 0L1151 0L1225 400Z" fill="#15384f" stroke="#15384f"></path><path d="M1225 400L1151 0L832 404Z" fill="#15384f" stroke="#15384f"></path><path d="M750 755L405 1222L751 1224Z" fill="#15384f" stroke="#15384f"></path><path d="M751 1224L405 1222L794 1606Z" fill="#0c2435" stroke="#0c2435"></path><path d="M394 736L405 1222L750 755Z" fill="#277297" stroke="#277297"></path><path d="M1254 1644L1259 2000L1597 1660Z" fill="#205a7a" stroke="#205a7a"></path><path d="M1597 1660L2000 2000L2000 1599Z" fill="#081a28" stroke="#081a28"></path><path d="M820 2000L1259 2000L1254 1644Z" fill="#15384f" stroke="#15384f"></path><path d="M435 374L394 736L750 755Z" fill="#205a7a" stroke="#205a7a"></path><path d="M1259 2000L1635 2000L1597 1660Z" fill="#112e42" stroke="#112e42"></path><path d="M1611 0L1225 400L1582 410Z" fill="#1d4e6b" stroke="#1d4e6b"></path><path d="M832 404L435 374L750 755Z" fill="#0c2435" stroke="#0c2435"></path><path d="M2000 386L1611 0L1582 410Z" fill="#205a7a" stroke="#205a7a"></path><path d="M752 0L435 374L832 404Z" fill="#19435d" stroke="#19435d"></path><path d="M434 2000L820 2000L794 1606Z" fill="#15384f" stroke="#15384f"></path><path d="M794 1606L820 2000L1254 1644Z" fill="#246688" stroke="#246688"></path><path d="M1635 2000L2000 2000L1597 1660Z" fill="#112e42" stroke="#112e42"></path><path d="M1151 0L752 0L832 404Z" fill="#205a7a" stroke="#205a7a"></path><path d="M2000 386L2000 0L1611 0Z" fill="#19435d" stroke="#19435d"></path><path d="M0 1195L346 1633L405 1222Z" fill="#246688" stroke="#246688"></path><path d="M405 1222L346 1633L794 1606Z" fill="#297ea6" stroke="#297ea6"></path><path d="M0 806L405 1222L394 736Z" fill="#19435d" stroke="#19435d"></path><path d="M752 0L455 0L435 374Z" fill="#1d4e6b" stroke="#1d4e6b"></path><path d="M346 1633L434 2000L794 1606Z" fill="#112e42" stroke="#112e42"></path><path d="M0 806L0 1195L405 1222Z" fill="#00101c" stroke="#00101c"></path><path d="M346 1633L0 2000L434 2000Z" fill="#081a28" stroke="#081a28"></path><path d="M0 806L394 736L0 459Z" fill="#205a7a" stroke="#205a7a"></path><path d="M0 459L394 736L435 374Z" fill="#00101c" stroke="#00101c"></path><path d="M0 0L0 459L435 374Z" fill="#277297" stroke="#277297"></path><path d="M0 1195L0 1660L346 1633Z" fill="#297ea6" stroke="#297ea6"></path><path d="M0 1660L0 2000L346 1633Z" fill="#112e42" stroke="#112e42"></path><path d="M455 0L0 0L435 374Z" fill="#205a7a" stroke="#205a7a"></path></g></svg>